<svg width="16" height="16" viewBox="0 0 16 16" fill="none" xmlns="http://www.w3.org/2000/svg">
<path d="M2.66634 13.3334C2.29967 13.3334 1.9859 13.2029 1.72501 12.942C1.46412 12.6811 1.33345 12.3671 1.33301 12V4.00002C1.33301 3.63335 1.46367 3.31958 1.72501 3.05869C1.98634 2.7978 2.30012 2.66713 2.66634 2.66669H13.333C13.6997 2.66669 14.0137 2.79735 14.275 3.05869C14.5363 3.32002 14.6668 3.6338 14.6663 4.00002V12C14.6663 12.3667 14.5359 12.6807 14.275 12.942C14.0141 13.2034 13.7001 13.3338 13.333 13.3334H2.66634ZM7.99967 8.66669L13.333 5.33335V4.00002L7.99967 7.33335L2.66634 4.00002V5.33335L7.99967 8.66669Z" fill="#121212"/>
</svg>
