<svg width="16" height="17" viewBox="0 0 16 17" fill="none" xmlns="http://www.w3.org/2000/svg">
<path d="M2.66732 13.8334C2.30065 13.8334 1.98687 13.703 1.72598 13.4421C1.4651 13.1812 1.33443 12.8672 1.33398 12.5001V4.50008C1.33398 4.13341 1.46465 3.81964 1.72598 3.55875C1.98732 3.29786 2.3011 3.16719 2.66732 3.16675H13.334C13.7007 3.16675 14.0147 3.29741 14.276 3.55875C14.5373 3.82008 14.6678 4.13386 14.6673 4.50008V12.5001C14.6673 12.8667 14.5369 13.1807 14.276 13.4421C14.0151 13.7034 13.7011 13.8339 13.334 13.8334H2.66732ZM8.00065 9.16675L13.334 5.83341V4.50008L8.00065 7.83341L2.66732 4.50008V5.83341L8.00065 9.16675Z" fill="#000060"/>
</svg>
