<svg width="16" height="17" viewBox="0 0 16 17" fill="none" xmlns="http://www.w3.org/2000/svg">
<path d="M13.3 14.5C11.9111 14.5 10.5389 14.1973 9.18333 13.592C7.82778 12.9867 6.59444 12.1282 5.48333 11.0167C4.37222 9.90511 3.514 8.67178 2.90867 7.31667C2.30333 5.96156 2.00044 4.58933 2 3.2C2 3 2.06667 2.83333 2.2 2.7C2.33333 2.56667 2.5 2.5 2.7 2.5H5.4C5.55556 2.5 5.69444 2.55289 5.81667 2.65867C5.93889 2.76444 6.01111 2.88933 6.03333 3.03333L6.46667 5.36667C6.48889 5.54444 6.48333 5.69444 6.45 5.81667C6.41667 5.93889 6.35556 6.04444 6.26667 6.13333L4.65 7.76667C4.87222 8.17778 5.136 8.57489 5.44133 8.958C5.74667 9.34111 6.08289 9.71067 6.45 10.0667C6.79444 10.4111 7.15556 10.7307 7.53333 11.0253C7.91111 11.32 8.31111 11.5893 8.73333 11.8333L10.3 10.2667C10.4 10.1667 10.5307 10.0918 10.692 10.042C10.8533 9.99222 11.0116 9.97822 11.1667 10L13.4667 10.4667C13.6222 10.5111 13.75 10.5918 13.85 10.7087C13.95 10.8256 14 10.956 14 11.1V13.8C14 14 13.9333 14.1667 13.8 14.3C13.6667 14.4333 13.5 14.5 13.3 14.5Z" fill="#000060"/>
</svg>
